<svg aria-hidden="true" style="position: absolute; width: 0; height: 0; overflow: hidden;" version="1.1" xmlns="http://www.w3.org/2000/svg" xmlns:xlink="http://www.w3.org/1999/xlink">
<defs>
<symbol id="icon-instagram" viewBox="0 0 32 32">
<path d="M10.333 0.889h11.333c5.215 0 9.444 4.229 9.444 9.444v11.333c0 5.215-4.229 9.444-9.444 9.444h-11.333c-5.215 0-9.444-4.229-9.444-9.444v-11.333c0-5.215 4.229-9.444 9.444-9.444zM21.667 28.278c3.646 0 6.611-2.965 6.611-6.611v-11.333c0-3.646-2.965-6.611-6.611-6.611h-11.333c-3.646 0-6.611 2.966-6.611 6.611v11.333c0 3.646 2.966 6.611 6.611 6.611h11.333z"></path>
<path d="M8.444 16c0-4.173 3.383-7.556 7.556-7.556s7.556 3.383 7.556 7.556c0 4.173-3.383 7.556-7.556 7.556s-7.556-3.383-7.556-7.556zM11.278 16c0 2.603 2.119 4.722 4.722 4.722s4.722-2.119 4.722-4.722c0-2.605-2.119-4.722-4.722-4.722s-4.722 2.117-4.722 4.722z"></path>
<path d="M24.185 9.704c1.043 0 1.889-0.846 1.889-1.889s-0.846-1.889-1.889-1.889c-1.043 0-1.889 0.846-1.889 1.889s0.846 1.889 1.889 1.889z"></path>
</symbol>
<symbol id="icon-Shape" viewBox="0 0 53 32">
<path d="M21.934 14.397c0 0 4.64-0.331 4.64-5.631 0-5.285-3.795-7.878-8.613-7.878h-15.849v29.594h15.848c0 0 9.681 0.289 9.681-8.741 0.001 0 0.416-7.345-5.706-7.345zM28.841 19.784c0-0.058 0.015-11.363 11.697-11.363 12.335 0 10.601 12.846 10.601 12.846h-15.774c0 5.487 5.352 5.141 5.352 5.141 5.070 0 4.893-3.182 4.893-3.182h5.352c0 8.453-10.422 7.878-10.422 7.878-12.497 0-11.697-11.319-11.697-11.319zM40.657 12.755c-4.7 0-5.353 4.551-5.353 4.551h9.993c0 0 0.074-4.551-4.64-4.551zM17.96 6.145h-8.865v6.61h8.316c1.438 0 2.699-0.447 2.699-3.528s-2.15-3.082-2.15-3.082zM17.515 25.227h-8.421v-7.921h8.865c0 0 3.218-0.029 3.203 4.075 0 3.457-2.386 3.817-3.647 3.846zM33.985 6.275v-3.644h12.572v3.644h-12.572z"></path>
</symbol>
<symbol id="icon-Group" viewBox="0 0 48 32">
<path d="M0.51 15.913c-0.273-7.318 6.014-14.080 13.199-14.168 3.662-0.318 7.224 1.131 9.995 3.496-1.137 1.274-2.293 2.534-3.529 3.713-2.44-1.511-5.377-2.663-8.228-1.64-4.599 1.335-7.384 6.871-5.682 11.458 1.409 4.79 7.124 7.419 11.603 5.407 2.319-0.847 3.848-3.028 4.519-5.373-2.658-0.054-5.317-0.020-7.975-0.095-0.007-1.612-0.013-3.219-0.007-4.831 4.433-0.007 8.872-0.020 13.311 0.020 0.273 3.951-0.299 8.178-2.818 11.349-3.449 4.526-9.822 5.854-15.006 4.079-5.502-1.843-9.503-7.494-9.383-13.416z"></path>
<path d="M36.358 9.814c1.316 0 2.632 0 3.954 0 0.007 1.349 0.020 2.704 0.027 4.052 1.322 0.014 2.651 0.020 3.974 0.027 0 1.349 0 2.69 0 4.038-1.322 0.007-2.651 0.014-3.974 0.020-0.013 1.355-0.020 2.703-0.027 4.058-1.322-0.007-2.645 0-3.961 0-0.013-1.355-0.013-2.703-0.026-4.052-1.322-0.014-2.651-0.020-3.974-0.028 0-1.349 0-2.69 0-4.038 1.323-0.007 2.645-0.014 3.974-0.027 0.007-1.347 0.020-2.703 0.034-4.051z"></path>
</symbol>
<symbol id="icon-pinterest" viewBox="0 0 26 32">
<path d="M20.346 3.389c-1.983-1.932-4.726-2.997-7.726-2.997-4.582 0-7.4 1.907-8.957 3.506-1.919 1.971-3.019 4.589-3.019 7.181 0 3.255 1.341 5.754 3.587 6.683 0.151 0.063 0.302 0.094 0.451 0.094 0.474 0 0.849-0.315 0.979-0.82 0.076-0.29 0.251-1.004 0.328-1.314 0.163-0.613 0.031-0.907-0.325-1.334-0.65-0.78-0.952-1.703-0.952-2.904 0-3.567 2.616-7.358 7.464-7.358 3.847 0 6.237 2.22 6.237 5.794 0 2.255-0.478 4.343-1.347 5.881-0.604 1.068-1.666 2.341-3.296 2.341-0.705 0-1.338-0.294-1.738-0.806-0.377-0.485-0.502-1.11-0.35-1.763 0.171-0.737 0.405-1.506 0.632-2.249 0.413-1.357 0.803-2.64 0.803-3.662 0-1.75-1.059-2.925-2.636-2.925-2.004 0-3.573 2.066-3.573 4.704 0 1.294 0.339 2.261 0.492 2.633-0.252 1.086-1.752 7.541-2.037 8.758-0.165 0.711-1.156 6.323 0.485 6.771 1.843 0.503 3.491-4.963 3.658-5.581 0.136-0.502 0.611-2.402 0.903-3.57 0.89 0.87 2.322 1.459 3.716 1.459 2.628 0 4.991-1.201 6.655-3.381 1.613-2.114 2.502-5.062 2.502-8.298 0-2.53-1.070-5.025-2.936-6.843z"></path>
</symbol>
<symbol id="icon-Path-Copy" viewBox="0 0 37 32">
<path d="M36.095 4.879c-1.31 0.585-2.719 0.98-4.197 1.157 1.509-0.91 2.667-2.35 3.214-4.070-1.412 0.843-2.977 1.455-4.641 1.785-1.333-1.429-3.232-2.323-5.335-2.323-4.035 0-7.308 3.295-7.308 7.357 0 0.577 0.065 1.138 0.19 1.677-6.073-0.307-11.458-3.236-15.063-7.688-0.629 1.086-0.99 2.351-0.99 3.699 0 2.552 1.291 4.805 3.251 6.124-1.197-0.038-2.325-0.369-3.31-0.921-0.001 0.031-0.001 0.063-0.001 0.093 0 3.565 2.52 6.538 5.862 7.213-0.613 0.169-1.259 0.258-1.925 0.258-0.472 0-0.929-0.046-1.375-0.131 0.93 2.922 3.628 5.049 6.826 5.109-2.501 1.974-5.652 3.149-9.077 3.149-0.589 0-1.172-0.035-1.742-0.103 3.232 2.088 7.074 3.306 11.201 3.306 13.441 0 20.792-11.21 20.792-20.934 0-0.319-0.007-0.636-0.021-0.951 1.429-1.037 2.668-2.332 3.647-3.808z"></path>
</symbol>
<symbol id="icon-facebook" viewBox="0 0 19 32">
<path d="M16.533 0.398l-3.763-0.006c-4.228 0-6.96 2.808-6.96 7.154v3.298h-3.784c-0.327 0-0.592 0.265-0.592 0.593v4.779c0 0.328 0.265 0.593 0.592 0.593h3.784v12.059c0 0.328 0.265 0.593 0.592 0.593h4.936c0.327 0 0.592-0.266 0.592-0.593v-12.059h4.424c0.327 0 0.592-0.265 0.592-0.593l0.002-4.779c0-0.157-0.063-0.308-0.173-0.419s-0.262-0.174-0.419-0.174h-4.425v-2.796c0-1.344 0.32-2.026 2.067-2.026l2.535-0.001c0.327 0 0.591-0.266 0.591-0.593v-4.438c0-0.327-0.264-0.592-0.591-0.593z"></path>
</symbol>
</defs>
</svg>
